<mxfile host="app.diagrams.net" agent="Mozilla/5.0 (Macintosh; Intel Mac OS X 10_15_7) AppleWebKit/605.1.15 (KHTML, like Gecko) Version/17.5 Safari/605.1.15" version="24.7.8">
  <diagram name="Page-1" id="2YBvvXClWsGukQMizWep">
    <mxGraphModel dx="855" dy="493" grid="1" gridSize="10" guides="1" tooltips="1" connect="1" arrows="1" fold="1" page="1" pageScale="1" pageWidth="850" pageHeight="1100" math="0" shadow="0">
      <root>
        <mxCell id="0" />
        <mxCell id="1" parent="0" />
        <mxCell id="zdvuHCyIY7IRIvCnZunm-4" value=":CryptoFeatureUseCase" style="shape=umlLifeline;perimeter=lifelinePerimeter;whiteSpace=wrap;html=1;container=1;dropTarget=0;collapsible=0;recursiveResize=0;outlineConnect=0;portConstraint=eastwest;newEdgeStyle={&quot;curved&quot;:0,&quot;rounded&quot;:0};" parent="1" vertex="1">
          <mxGeometry x="240" y="130" width="150" height="300" as="geometry" />
        </mxCell>
        <mxCell id="zdvuHCyIY7IRIvCnZunm-6" value="" style="html=1;points=[[0,0,0,0,5],[0,1,0,0,-5],[1,0,0,0,5],[1,1,0,0,-5]];perimeter=orthogonalPerimeter;outlineConnect=0;targetShapes=umlLifeline;portConstraint=eastwest;newEdgeStyle={&quot;curved&quot;:0,&quot;rounded&quot;:0};" parent="zdvuHCyIY7IRIvCnZunm-4" vertex="1">
          <mxGeometry x="70" y="80" width="10" height="160" as="geometry" />
        </mxCell>
        <mxCell id="zdvuHCyIY7IRIvCnZunm-5" value=":CryptoRSARepository" style="shape=umlLifeline;perimeter=lifelinePerimeter;whiteSpace=wrap;html=1;container=1;dropTarget=0;collapsible=0;recursiveResize=0;outlineConnect=0;portConstraint=eastwest;newEdgeStyle={&quot;curved&quot;:0,&quot;rounded&quot;:0};" parent="1" vertex="1">
          <mxGeometry x="420" y="130" width="130" height="300" as="geometry" />
        </mxCell>
        <mxCell id="zdvuHCyIY7IRIvCnZunm-15" value="" style="html=1;points=[[0,0,0,0,5],[0,1,0,0,-5],[1,0,0,0,5],[1,1,0,0,-5]];perimeter=orthogonalPerimeter;outlineConnect=0;targetShapes=umlLifeline;portConstraint=eastwest;newEdgeStyle={&quot;curved&quot;:0,&quot;rounded&quot;:0};" parent="zdvuHCyIY7IRIvCnZunm-5" vertex="1">
          <mxGeometry x="60" y="80" width="10" height="60" as="geometry" />
        </mxCell>
        <mxCell id="zdvuHCyIY7IRIvCnZunm-13" value="encrypt plain text" style="html=1;verticalAlign=bottom;endArrow=block;curved=0;rounded=0;" parent="1" edge="1">
          <mxGeometry width="80" relative="1" as="geometry">
            <mxPoint x="155" y="210" as="sourcePoint" />
            <mxPoint x="310" y="210" as="targetPoint" />
          </mxGeometry>
        </mxCell>
        <mxCell id="zdvuHCyIY7IRIvCnZunm-14" value="decrypt AES key" style="html=1;verticalAlign=bottom;endArrow=block;curved=0;rounded=0;" parent="1" target="zdvuHCyIY7IRIvCnZunm-15" edge="1">
          <mxGeometry x="0.0313" width="80" relative="1" as="geometry">
            <mxPoint x="320" y="230" as="sourcePoint" />
            <mxPoint x="475" y="230" as="targetPoint" />
            <mxPoint as="offset" />
          </mxGeometry>
        </mxCell>
        <mxCell id="zdvuHCyIY7IRIvCnZunm-16" value="decrypted AES key" style="html=1;verticalAlign=bottom;endArrow=open;dashed=1;endSize=8;curved=0;rounded=0;" parent="1" source="zdvuHCyIY7IRIvCnZunm-15" edge="1">
          <mxGeometry relative="1" as="geometry">
            <mxPoint x="475" y="260" as="sourcePoint" />
            <mxPoint x="320" y="260" as="targetPoint" />
          </mxGeometry>
        </mxCell>
        <mxCell id="zdvuHCyIY7IRIvCnZunm-18" value=":CryptoAESRepository" style="shape=umlLifeline;perimeter=lifelinePerimeter;whiteSpace=wrap;html=1;container=1;dropTarget=0;collapsible=0;recursiveResize=0;outlineConnect=0;portConstraint=eastwest;newEdgeStyle={&quot;curved&quot;:0,&quot;rounded&quot;:0};" parent="1" vertex="1">
          <mxGeometry x="570" y="130" width="140" height="300" as="geometry" />
        </mxCell>
        <mxCell id="zdvuHCyIY7IRIvCnZunm-19" value="" style="html=1;points=[[0,0,0,0,5],[0,1,0,0,-5],[1,0,0,0,5],[1,1,0,0,-5]];perimeter=orthogonalPerimeter;outlineConnect=0;targetShapes=umlLifeline;portConstraint=eastwest;newEdgeStyle={&quot;curved&quot;:0,&quot;rounded&quot;:0};" parent="zdvuHCyIY7IRIvCnZunm-18" vertex="1">
          <mxGeometry x="65" y="180" width="10" height="40" as="geometry" />
        </mxCell>
        <mxCell id="zdvuHCyIY7IRIvCnZunm-20" value="encrypt plain text using AES key" style="html=1;verticalAlign=bottom;endArrow=block;curved=0;rounded=0;" parent="1" target="zdvuHCyIY7IRIvCnZunm-19" edge="1">
          <mxGeometry x="0.0328" width="80" relative="1" as="geometry">
            <mxPoint x="320" y="310" as="sourcePoint" />
            <mxPoint x="475" y="310" as="targetPoint" />
            <mxPoint as="offset" />
          </mxGeometry>
        </mxCell>
        <mxCell id="zdvuHCyIY7IRIvCnZunm-21" value="encrypted text" style="html=1;verticalAlign=bottom;endArrow=open;dashed=1;endSize=8;curved=0;rounded=0;" parent="1" target="zdvuHCyIY7IRIvCnZunm-6" edge="1">
          <mxGeometry relative="1" as="geometry">
            <mxPoint x="635" y="350" as="sourcePoint" />
            <mxPoint x="480" y="350" as="targetPoint" />
          </mxGeometry>
        </mxCell>
        <mxCell id="zdvuHCyIY7IRIvCnZunm-22" value="encrypted text" style="html=1;verticalAlign=bottom;endArrow=open;dashed=1;endSize=8;curved=0;rounded=0;" parent="1" edge="1">
          <mxGeometry x="-0.0016" relative="1" as="geometry">
            <mxPoint x="312.5" y="370" as="sourcePoint" />
            <mxPoint x="155" y="370" as="targetPoint" />
            <mxPoint as="offset" />
          </mxGeometry>
        </mxCell>
        <mxCell id="zdvuHCyIY7IRIvCnZunm-23" value="&lt;font style=&quot;font-size: 20px;&quot;&gt;&lt;b&gt;Best Practice Encrypt Plain Text Using RSA&lt;/b&gt;&lt;/font&gt;" style="text;html=1;strokeColor=none;fillColor=none;align=center;verticalAlign=middle;whiteSpace=wrap;rounded=0;" parent="1" vertex="1">
          <mxGeometry x="170" y="50" width="500" height="30" as="geometry" />
        </mxCell>
        <mxCell id="BFms3EZNLzKrh9zzQBW5-7" value="" style="shape=umlLifeline;perimeter=lifelinePerimeter;whiteSpace=wrap;html=1;container=1;dropTarget=0;collapsible=0;recursiveResize=0;outlineConnect=0;portConstraint=eastwest;newEdgeStyle={&quot;curved&quot;:0,&quot;rounded&quot;:0};participant=umlActor;" parent="1" vertex="1">
          <mxGeometry x="140" y="130" width="20" height="300" as="geometry" />
        </mxCell>
        <mxCell id="BFms3EZNLzKrh9zzQBW5-8" value="" style="html=1;points=[[0,0,0,0,5],[0,1,0,0,-5],[1,0,0,0,5],[1,1,0,0,-5]];perimeter=orthogonalPerimeter;outlineConnect=0;targetShapes=umlLifeline;portConstraint=eastwest;newEdgeStyle={&quot;curved&quot;:0,&quot;rounded&quot;:0};" parent="BFms3EZNLzKrh9zzQBW5-7" vertex="1">
          <mxGeometry x="5" y="70" width="10" height="190" as="geometry" />
        </mxCell>
      </root>
    </mxGraphModel>
  </diagram>
</mxfile>
